# xmcd
#
# Track frame offsets: 
#        150
#        13802
#        34358
#        50111
#        57213
#        62081
#        65873
#        82827
#        100680
#        119136
#        137891
#        152745
#        165500
#        184405
#        206169
#        228397
#        242060
#        257078
#        275436
#
# Disc length: 3928 seconds
#
# Revision: 0
# Processed by: cddbd v1.5.2PL0 Copyright (c) Steve Scherf et al.
# Submitted via: ExactAudioCopy v1.0b3
#
DISCID=1f0f5613
DTITLE=2 Weeks Notis - 2 Weeks Notis
DYEAR=2012
DGENRE=Blues
TTITLE0=Memphis
TTITLE1=Ain't No Sunshine
TTITLE2=Brown Sugar
TTITLE3=Jailhouse Rock
TTITLE4=Blue Suede Shoes
TTITLE5=Hound Dog
TTITLE6=Pride and Joy
TTITLE7=Joker
TTITLE8=Tore Down
TTITLE9=Funky Music
TTITLE10=Walk This Way
TTITLE11=Sweet Potato Man
TTITLE12=Queen of Down Town
TTITLE13=Sky is Cryin'
TTITLE14=Road House Blues
TTITLE15=Cheatin' Heart
TTITLE16=Honky Tonk Women
TTITLE17=The Thrill is Gone
TTITLE18=Blues We Like
EXTD=
EXTT0=
EXTT1=
EXTT2=
EXTT3=
EXTT4=
EXTT5=
EXTT6=
EXTT7=
EXTT8=
EXTT9=
EXTT10=
EXTT11=
EXTT12=
EXTT13=
EXTT14=
EXTT15=
EXTT16=
EXTT17=
EXTT18=
PLAYORDER=
